HIERARCHY
ROOT SpineBase
{
  OFFSET 0.000000 0.000000 0.000000
  CHANNELS 6 Xposition Yposition Zposition Zrotation Xrotation Yrotation
  JOINT SpineMid
  {
    OFFSET -0.000000 31.157965 0.000000
    CHANNELS 3 Zrotation Xrotation Yrotation
    JOINT SpineShoulder
    {
      OFFSET 0.025404 23.210895 -0.881349
      CHANNELS 3 Zrotation Xrotation Yrotation
      JOINT Neck
      {
        OFFSET 0.017116 7.701706 -0.659944
        CHANNELS 3 Zrotation Xrotation Yrotation
        JOINT Head
        {
          OFFSET -5.994271 13.226218 2.594150
          CHANNELS 3 Zrotation Xrotation Yrotation
          End Site
          {
            OFFSET 0 0 0
          }
        }
      }
      JOINT ShoulderLeft
      {
        OFFSET -11.276215 -4.042583 14.267688
        CHANNELS 3 Zrotation Xrotation Yrotation
        JOINT ElbowLeft
        {
          OFFSET -3.268994 -29.852065 -1.842195
          CHANNELS 3 Zrotation Xrotation Yrotation
          JOINT WristLeft
          {
            OFFSET -2.973491 -21.701128 -5.745424
            CHANNELS 3 Zrotation Xrotation Yrotation
            JOINT HandLeft
            {
              OFFSET -1.244923 0.880943 -17.693808
              CHANNELS 3 Zrotation Xrotation Yrotation
              JOINT HandTipLeft
              {
                OFFSET -2.608423 1.129824 -2.441213
                CHANNELS 3 Zrotation Xrotation Yrotation
                End Site
                {
                  OFFSET 0 0 0
                }
              }
              JOINT ThumbLeft
              {
                OFFSET -2.769543 2.365134 -3.803990
                CHANNELS 3 Zrotation Xrotation Yrotation
                End Site
                {
                  OFFSET 0 0 0
                }
              }
            }
          }
        }
      }
      JOINT ShoulderRight
      {
        OFFSET 9.135975 -2.991884 -12.704743
        CHANNELS 3 Zrotation Xrotation Yrotation
        JOINT ElbowRight
        {
          OFFSET -1.781261 -22.462152 -6.309831
          CHANNELS 3 Zrotation Xrotation Yrotation
          JOINT WristRight
          {
            OFFSET -8.800567 -19.890575 -2.417293
            CHANNELS 3 Zrotation Xrotation Yrotation
            JOINT HandRight
            {
              OFFSET -7.148928 -3.729395 0.924811
              CHANNELS 3 Zrotation Xrotation Yrotation
              JOINT HandTipRight
              {
                OFFSET -5.395723 -6.033513 1.395068
                CHANNELS 3 Zrotation Xrotation Yrotation
                End Site
                {
                  OFFSET 0 0 0
                }
              }
              JOINT ThumbRight
              {
                OFFSET -4.954876 3.815207 -5.083071
                CHANNELS 3 Zrotation Xrotation Yrotation
                End Site
                {
                  OFFSET 0 0 0
                }
              }
            }
          }
        }
      }
    }
  }
  JOINT HipLeft
  {
    OFFSET -5.053769 -0.354302 2.148131
    CHANNELS 3 Zrotation Xrotation Yrotation
    JOINT KneeLeft
    {
      OFFSET -4.550488 -29.044494 -0.087285
      CHANNELS 3 Zrotation Xrotation Yrotation
      JOINT AnkleLeft
      {
        OFFSET -2.173521 -32.429283 3.293353
        CHANNELS 3 Zrotation Xrotation Yrotation
        JOINT FootLeft
        {
          OFFSET -8.835968 -2.759564 -10.532430
          CHANNELS 3 Zrotation Xrotation Yrotation
          End Site
          {
            OFFSET 0 0 0
          }
        }
      }
    }
  }
  JOINT HipRight
  {
    OFFSET 5.030185 2.501651 -9.151520
    CHANNELS 3 Zrotation Xrotation Yrotation
    JOINT KneeRight
    {
      OFFSET 5.635463 -24.086372 -6.046181
      CHANNELS 3 Zrotation Xrotation Yrotation
      JOINT AnkleRight
      {
        OFFSET 7.649542 -39.650004 9.796126
        CHANNELS 3 Zrotation Xrotation Yrotation
        JOINT FootRight
        {
          OFFSET -8.398741 -3.336574 -9.814301
          CHANNELS 3 Zrotation Xrotation Yrotation
          End Site
          {
            OFFSET 0 0 0
          }
        }
      }
    }
  }
}
MOTION
Frames: 11
Frame Time: 0.033333
-19.430190 71.539052 330.615191 11.648042 12.951971 58.700034 1.239636 -0.194939 -59.577119 -1.034545 0.273692 0.335500 -0.916166 4.411338 4.651910 0.000000 0.000000 0.000000 -67.174834 30.869006 5.681447 10.759843 -8.070878 8.714432 34.620334 -23.775903 91.201413 -18.888159 -40.396066 -59.875445 0.000000 0.000000 0.000000 0.000000 0.000000 0.000000 -56.510633 2.079301 4.567649 -21.939085 -38.057198 -18.296221 25.957289 19.166102 -12.720247 -6.305979 14.885837 -12.666955 0.000000 0.000000 0.000000 0.000000 0.000000 0.000000 -34.909476 1.185333 -56.217594 37.383574 27.708741 -13.318769 -0.417322 -42.750506 -5.318768 0.000000 0.000000 0.000000 -13.476039 15.915997 -55.645385 38.573293 11.588747 7.792074 -36.582391 -17.285134 -5.767113 0.000000 0.000000 0.000000
-19.502027 71.593464 330.929132 10.633119 12.325376 58.343870 1.356545 0.036491 -59.120809 -0.794332 0.210528 0.342831 -1.204552 5.135717 5.018685 0.000000 0.000000 0.000000 -67.080616 32.131241 6.922639 18.998326 -11.510204 9.731715 41.568467 -30.928125 95.527580 -9.133516 -31.954745 -58.274066 0.000000 0.000000 0.000000 0.000000 0.000000 0.000000 -48.784175 3.675659 4.088701 -24.504127 -40.796920 -16.838937 20.470236 19.883903 -10.335595 -3.815302 13.547343 -12.465976 0.000000 0.000000 0.000000 0.000000 0.000000 0.000000 -33.459224 0.898551 -56.065408 36.773019 26.553169 -12.472722 5.472894 -47.445198 -5.979678 0.000000 0.000000 0.000000 -11.477731 15.396043 -55.250640 38.067821 9.799020 8.262851 -34.285542 -18.934724 -6.912105 0.000000 0.000000 0.000000
-19.959630 71.302857 332.024124 9.293088 10.833142 55.409715 1.532991 0.538417 -56.034753 -0.544635 0.217181 0.326747 0.258587 6.819849 5.371993 0.000000 0.000000 0.000000 -57.509038 31.707316 5.414042 18.362043 -7.915447 9.117789 73.709132 -41.894398 128.991321 -0.429661 -10.530929 -74.169422 0.000000 0.000000 0.000000 0.000000 0.000000 0.000000 -41.573496 2.991668 3.466152 -24.432218 -40.142477 -12.960830 28.836315 19.092463 -14.155578 -12.208322 10.596074 -11.064719 0.000000 0.000000 0.000000 0.000000 0.000000 0.000000 -29.099181 -1.268611 -53.849765 33.052516 24.085642 -10.170053 12.262909 -51.168302 -5.190445 0.000000 0.000000 0.000000 -5.692688 17.304404 -51.759940 37.925359 2.822504 10.556304 -34.468151 -16.895691 -6.080518 0.000000 0.000000 0.000000
-19.233941 71.092320 332.011128 8.654446 10.265825 52.534973 0.781473 0.702793 -53.094463 -0.462685 -0.048750 0.314832 1.660767 8.029578 5.333084 0.000000 0.000000 0.000000 -36.683653 26.350405 0.252106 3.092600 1.626607 4.944811 52.369776 -46.032193 95.297595 -1.152929 -29.629179 -55.255318 0.000000 0.000000 0.000000 0.000000 0.000000 0.000000 -32.690279 2.917457 2.557812 -20.133891 -38.627986 -6.962888 29.584639 15.899511 -11.591067 -15.116928 12.489911 -13.301989 0.000000 0.000000 0.000000 0.000000 0.000000 0.000000 -24.380682 -3.890425 -51.718900 26.381058 20.732384 -7.192518 12.410361 -46.656467 -2.278176 0.000000 0.000000 0.000000 -4.807953 17.319178 -48.657953 37.866781 -1.024629 11.135270 -33.800188 -14.207612 -4.770927 0.000000 0.000000 0.000000
-17.487592 70.888771 331.405928 8.703653 9.915591 49.769060 -0.268248 0.639413 -50.304082 -0.398307 -0.078887 0.308824 2.645906 8.831262 5.044348 0.000000 0.000000 0.000000 -21.860132 20.571891 -2.353701 -7.056679 9.325271 2.617065 58.228643 -49.986077 99.617463 -5.664670 -30.138065 -63.466249 0.000000 0.000000 0.000000 0.000000 0.000000 0.000000 -21.252173 2.603853 0.670921 -17.717201 -34.813826 -0.730603 24.348114 14.762999 -9.518841 -13.119501 11.630628 -12.966697 0.000000 0.000000 0.000000 0.000000 0.000000 0.000000 -20.731477 -5.155646 -49.344738 19.559103 16.274089 -4.417456 8.059405 -36.252588 -0.237392 0.000000 0.000000 0.000000 -5.335715 18.488377 -45.451489 37.730419 -6.166947 11.138579 -31.515101 -10.840371 -2.817725 0.000000 0.000000 0.000000
-16.012726 70.488508 331.073068 8.207362 8.916369 47.655328 -0.652878 0.498350 -48.075053 -0.339184 -0.113679 0.296101 4.036181 9.673574 4.622126 0.000000 0.000000 0.000000 -9.658625 14.422772 -3.317221 -17.553082 17.170718 1.849431 66.544562 -53.939115 101.407181 -5.717333 -29.177873 -65.538571 0.000000 0.000000 0.000000 0.000000 0.000000 0.000000 -12.820859 0.931176 -0.611186 -14.774860 -27.846296 3.320842 23.731047 11.891633 -7.247651 -13.864208 12.809781 -14.456997 0.000000 0.000000 0.000000 0.000000 0.000000 0.000000 -17.804169 -6.505585 -47.242908 14.780911 14.683599 -3.391657 6.536787 -30.661102 1.029941 0.000000 0.000000 0.000000 -4.256786 17.184776 -43.628439 34.666778 -9.743291 10.400596 -28.823641 -7.590174 -0.959952 0.000000 0.000000 0.000000
-13.730163 69.937300 330.811592 7.824451 7.397157 46.372979 -0.742457 0.371460 -46.648764 -0.283851 -0.072625 0.291617 4.856216 10.349630 4.026314 0.000000 0.000000 0.000000 -1.268646 9.958369 -3.323402 -25.130724 21.965659 2.153360 73.173842 -56.835029 101.617917 -1.668987 -24.845078 -62.965497 0.000000 0.000000 0.000000 0.000000 0.000000 0.000000 -3.839772 0.058269 -2.148233 -14.864507 -21.568025 5.771448 20.494620 9.861080 -5.065944 -11.363953 14.683680 -16.406724 0.000000 0.000000 0.000000 0.000000 0.000000 0.000000 -17.012577 -5.989203 -45.693075 13.295387 15.090198 -3.374397 4.270059 -26.035912 1.456991 0.000000 0.000000 0.000000 -3.472889 16.056346 -42.652607 31.173528 -12.216136 8.973528 -25.570391 -4.656089 0.598910 0.000000 0.000000 0.000000
-11.066855 69.206653 330.612088 7.574852 5.620679 45.797222 -0.583548 0.265729 -45.922833 -0.236535 0.019150 0.295609 5.201900 10.926193 3.374342 0.000000 0.000000 0.000000 3.106523 7.448298 -3.099238 -28.409113 24.098671 2.509979 77.678542 -57.962554 104.026247 2.193524 -20.546031 -60.491748 0.000000 0.000000 0.000000 0.000000 0.000000 0.000000 2.144872 -0.609527 -3.283948 -14.026169 -15.836462 6.727096 20.368657 8.917141 -5.551257 -14.373317 14.819033 -16.378130 0.000000 0.000000 0.000000 0.000000 0.000000 0.000000 -15.522514 -3.557108 -44.895901 12.025985 13.053625 -2.630641 -0.584807 -17.446707 0.134411 0.000000 0.000000 0.000000 -2.721374 14.601561 -42.582026 26.395324 -13.253502 6.938339 -21.531114 -2.366886 1.697965 0.000000 0.000000 0.000000
-8.394025 68.540919 330.512436 7.517143 3.820543 46.889253 -0.398858 0.281607 -46.885187 -0.270960 0.086938 0.295585 2.576430 10.469081 3.122977 0.000000 0.000000 0.000000 5.197788 7.162148 -3.121824 -28.998713 22.573310 2.309786 80.065256 -58.989003 103.612815 6.968368 -16.435872 -57.027233 0.000000 0.000000 0.000000 0.000000 0.000000 0.000000 6.180775 -0.840063 -4.172225 -12.739776 -10.730303 6.577481 21.049545 7.768929 -5.472218 -18.247754 15.655908 -17.490159 0.000000 0.000000 0.000000 0.000000 0.000000 0.000000 -14.314160 0.188739 -45.744015 10.935945 10.682784 -1.886825 -0.890689 -12.936680 -1.051772 0.000000 0.000000 0.000000 -2.252013 12.584297 -44.416720 21.162866 -12.287122 4.866484 -17.447489 -0.781998 2.296963 0.000000 0.000000 0.000000
-5.679589 68.055418 330.630214 7.312643 1.900629 47.930225 -0.296004 0.300862 -47.796710 -0.230049 0.143456 0.295484 -0.444868 9.659990 2.856134 0.000000 0.000000 0.000000 5.243334 9.307783 -3.451817 -26.908337 17.317206 1.554768 80.079183 -59.903758 100.726618 11.922542 -10.995174 -53.906980 0.000000 0.000000 0.000000 0.000000 0.000000 0.000000 9.325953 0.057727 -5.131579 -10.979320 -7.259575 6.034892 21.949385 7.116548 -5.794951 -24.229320 14.436266 -16.822508 0.000000 0.000000 0.000000 0.000000 0.000000 0.000000 -12.880504 3.966591 -46.570397 10.444355 8.614946 -1.340548 1.373238 -12.166963 -1.790886 0.000000 0.000000 0.000000 -1.522143 10.442571 -46.271542 15.230384 -10.510309 3.042748 -12.920418 0.188277 2.473870 0.000000 0.000000 0.000000
-3.022527 67.911984 330.846471 7.232924 0.116051 49.078493 -0.083522 0.252096 -48.826879 -0.167977 0.213012 0.305848 -3.293875 8.906308 2.587642 0.000000 0.000000 0.000000 2.573981 13.753821 -3.852008 -21.915965 7.398448 0.598493 75.787330 -62.688073 90.203638 16.702130 -5.400651 -50.584968 0.000000 0.000000 0.000000 0.000000 0.000000 0.000000 10.383562 1.558797 -5.850524 -7.320252 -4.551953 4.839494 23.681987 6.456018 -5.344313 -29.665133 13.474000 -17.045971 0.000000 0.000000 0.000000 0.000000 0.000000 0.000000 -12.737700 7.802323 -47.265795 11.597801 7.431329 -1.172470 3.381768 -12.156457 -1.854424 0.000000 0.000000 0.000000 -1.085785 8.034041 -48.351957 9.685743 -7.401047 2.037219 -8.941283 0.173500 2.394654 0.000000 0.000000 0.000000
